<?xml version="1.0" encoding="utf-8"?>
<!-- Generator: Adobe Illustrator 21.0.2, SVG Export Plug-In . SVG Version: 6.00 Build 0)  -->
<svg version="1.1" id="Lag_1" xmlns="http://www.w3.org/2000/svg" xmlns:xlink="http://www.w3.org/1999/xlink" x="0px" y="0px"
	 viewBox="0 0 1920 250" style="enable-background:new 0 0 1920 250;" xml:space="preserve">
<style type="text/css">
	.st0{fill:none;stroke:#FFFFFF;stroke-width:11;stroke-linecap:round;stroke-linejoin:round;stroke-miterlimit:10;}
	.st1{fill:none;stroke:#FFFFFF;stroke-width:16.3904;stroke-linecap:round;stroke-linejoin:round;stroke-miterlimit:10;}
	.st2{fill:none;stroke:#FFFFFF;stroke-width:24;stroke-linecap:round;stroke-linejoin:round;stroke-miterlimit:10;}
	.st3{fill:none;stroke:#FFFFFF;stroke-width:8.1952;stroke-linecap:round;stroke-linejoin:round;stroke-miterlimit:10;}
	.st4{fill:none;stroke:#FFFFFF;stroke-width:13.9024;stroke-linecap:round;stroke-linejoin:round;stroke-miterlimit:10;}
	.st5{fill:none;stroke:#FFFFFF;stroke-width:6.1445;stroke-linecap:round;stroke-linejoin:round;stroke-miterlimit:10;}
	.st6{fill:none;stroke:#FFFFFF;stroke-width:6.913;stroke-linecap:round;stroke-linejoin:round;stroke-miterlimit:10;}
	.st7{fill:none;stroke:#FFFFFF;stroke-width:4.0707;stroke-linecap:round;stroke-linejoin:round;stroke-miterlimit:10;}
	.st8{fill:none;stroke:#FFFFFF;stroke-width:7.1134;stroke-linecap:round;stroke-linejoin:round;stroke-miterlimit:10;}
	.st9{fill:none;stroke:#FFFFFF;stroke-width:12;stroke-linecap:round;stroke-linejoin:round;stroke-miterlimit:10;}
	.st10{fill:none;stroke:#FFFFFF;stroke-width:9.0222;stroke-linecap:round;stroke-linejoin:round;stroke-miterlimit:10;}
	.st11{fill:none;stroke:#FFFFFF;stroke-width:13.4435;stroke-linecap:round;stroke-linejoin:round;stroke-miterlimit:10;}
	.st12{fill:none;stroke:#FFFFFF;stroke-width:6.7217;stroke-linecap:round;stroke-linejoin:round;stroke-miterlimit:10;}
	.st13{fill:none;stroke:#FFFFFF;stroke-width:11.4028;stroke-linecap:round;stroke-linejoin:round;stroke-miterlimit:10;}
	.st14{fill:none;stroke:#FFFFFF;stroke-width:5.0397;stroke-linecap:round;stroke-linejoin:round;stroke-miterlimit:10;}
	.st15{fill:none;stroke:#FFFFFF;stroke-width:7.0303;stroke-linecap:round;stroke-linejoin:round;stroke-miterlimit:10;}
	.st16{fill:none;stroke:#FFFFFF;stroke-width:2.4608;stroke-linecap:round;stroke-linejoin:round;stroke-miterlimit:10;}
	.st17{fill:none;stroke:#FFFFFF;stroke-width:9.8425;stroke-linecap:round;stroke-linejoin:round;stroke-miterlimit:10;}
	.st18{fill:none;stroke:#FFFFFF;stroke-width:3.3388;stroke-linecap:round;stroke-linejoin:round;stroke-miterlimit:10;}
	.st19{fill:none;stroke:#FFFFFF;stroke-width:6.7965;stroke-linecap:round;stroke-linejoin:round;stroke-miterlimit:10;}
	.st20{fill:none;stroke:#FFFFFF;stroke-width:3.4369;stroke-linecap:round;stroke-linejoin:round;stroke-miterlimit:10;}
	.st21{fill:none;stroke:#FFFFFF;stroke-width:3.4775;stroke-linecap:round;stroke-linejoin:round;stroke-miterlimit:10;}
	.st22{fill:none;stroke:#FFFFFF;stroke-width:5.8344;stroke-linecap:round;stroke-linejoin:round;stroke-miterlimit:10;}
	.st23{fill:none;stroke:#FFFFFF;stroke-width:8.5764;stroke-linecap:round;stroke-linejoin:round;stroke-miterlimit:10;}
	.st24{fill:none;stroke:#FFFFFF;stroke-width:21.534;stroke-linecap:round;stroke-linejoin:round;stroke-miterlimit:10;}
	.st25{fill:none;stroke:#FFFFFF;stroke-width:11.2219;stroke-linecap:round;stroke-linejoin:round;stroke-miterlimit:10;}
	.st26{fill:none;stroke:#FFFFFF;stroke-width:9.1095;stroke-linecap:round;stroke-linejoin:round;stroke-miterlimit:10;}
	.st27{fill:none;stroke:#FFFFFF;stroke-width:12.4739;stroke-linecap:round;stroke-linejoin:round;stroke-miterlimit:10;}
	.st28{fill:none;stroke:#FFFFFF;stroke-width:7.2827;stroke-linecap:round;stroke-linejoin:round;stroke-miterlimit:10;}
	.st29{fill:none;stroke:#FFFFFF;stroke-width:5.982;stroke-linecap:round;stroke-linejoin:round;stroke-miterlimit:10;}
	.st30{fill:none;stroke:#FFFFFF;stroke-width:12.675;stroke-linecap:round;stroke-linejoin:round;stroke-miterlimit:10;}
	.st31{fill:none;stroke:#FFFFFF;stroke-width:7.9447;stroke-linecap:round;stroke-linejoin:round;stroke-miterlimit:10;}
	.st32{fill:none;stroke:#FFFFFF;stroke-width:4.5249;stroke-linecap:round;stroke-linejoin:round;stroke-miterlimit:10;}
	.st33{fill:none;stroke:#FFFFFF;stroke-width:6.8682;stroke-linecap:round;stroke-linejoin:round;stroke-miterlimit:10;}
	.st34{fill:none;stroke:#FFFFFF;stroke-width:3.2591;stroke-linecap:round;stroke-linejoin:round;stroke-miterlimit:10;}
	.st35{fill:none;stroke:#FFFFFF;stroke-width:6.4812;stroke-linecap:round;stroke-linejoin:round;stroke-miterlimit:10;}
	.st36{fill:none;stroke:#FFFFFF;stroke-width:9.6572;stroke-linecap:round;stroke-linejoin:round;stroke-miterlimit:10;}
	.st37{fill:none;stroke:#FFFFFF;stroke-width:6.0311;stroke-linecap:round;stroke-linejoin:round;stroke-miterlimit:10;}
	.st38{fill:none;stroke:#FFFFFF;stroke-width:3.8821;stroke-linecap:round;stroke-linejoin:round;stroke-miterlimit:10;}
	.st39{fill:none;stroke:#FFFFFF;stroke-width:3.6203;stroke-linecap:round;stroke-linejoin:round;stroke-miterlimit:10;}
	.st40{fill:none;stroke:#FFFFFF;stroke-width:6.3079;stroke-linecap:round;stroke-linejoin:round;stroke-miterlimit:10;}
	.st41{fill:none;stroke:#FFFFFF;stroke-width:2.7353;stroke-linecap:round;stroke-linejoin:round;stroke-miterlimit:10;}
	.st42{fill:none;stroke:#FFFFFF;stroke-width:2.9958;stroke-linecap:round;stroke-linejoin:round;stroke-miterlimit:10;}
	.st43{fill:none;stroke:#FFFFFF;stroke-width:7.584;stroke-linecap:round;stroke-linejoin:round;stroke-miterlimit:10;}
	.st44{fill:none;stroke:#FFFFFF;stroke-width:4.9043;stroke-linecap:round;stroke-linejoin:round;stroke-miterlimit:10;}
	.st45{fill:none;stroke:#FFFFFF;stroke-width:8.2734;stroke-linecap:round;stroke-linejoin:round;stroke-miterlimit:10;}
	.st46{fill:none;stroke:#FFFFFF;stroke-width:4.9055;stroke-linecap:round;stroke-linejoin:round;stroke-miterlimit:10;}
	.st47{fill:none;stroke:#FFFFFF;stroke-width:7.737;stroke-linecap:round;stroke-linejoin:round;stroke-miterlimit:10;}
	.st48{fill:none;stroke:#FFFFFF;stroke-width:8.6002;stroke-linecap:round;stroke-linejoin:round;stroke-miterlimit:10;}
	.st49{fill:none;stroke:#FFFFFF;stroke-width:4.349;stroke-linecap:round;stroke-linejoin:round;stroke-miterlimit:10;}
	.st50{fill:none;stroke:#FFFFFF;stroke-width:7.9315;stroke-linecap:round;stroke-linejoin:round;stroke-miterlimit:10;}
	.st51{fill:none;stroke:#FFFFFF;stroke-width:11.6138;stroke-linecap:round;stroke-linejoin:round;stroke-miterlimit:10;}
	.st52{fill:none;stroke:#FFFFFF;stroke-width:3.9657;stroke-linecap:round;stroke-linejoin:round;stroke-miterlimit:10;}
	.st53{fill:none;stroke:#FFFFFF;stroke-width:3.2527;stroke-linecap:round;stroke-linejoin:round;stroke-miterlimit:10;}
	.st54{fill:none;stroke:#FFFFFF;stroke-width:5.5179;stroke-linecap:round;stroke-linejoin:round;stroke-miterlimit:10;}
	.st55{fill:none;stroke:#FFFFFF;stroke-width:1.6157;stroke-linecap:round;stroke-linejoin:round;stroke-miterlimit:10;}
	.st56{fill:none;stroke:#FFFFFF;stroke-width:5.8069;stroke-linecap:round;stroke-linejoin:round;stroke-miterlimit:10;}
	.st57{fill:none;stroke:#FFFFFF;stroke-width:6.5054;stroke-linecap:round;stroke-linejoin:round;stroke-miterlimit:10;}
	.st58{fill:none;stroke:#FFFFFF;stroke-width:2.4388;stroke-linecap:round;stroke-linejoin:round;stroke-miterlimit:10;}
	.st59{fill:none;stroke:#FFFFFF;stroke-width:4.4082;stroke-linecap:round;stroke-linejoin:round;stroke-miterlimit:10;}
	.st60{fill:none;stroke:#FFFFFF;stroke-width:6.1336;stroke-linecap:round;stroke-linejoin:round;stroke-miterlimit:10;}
	.st61{fill:none;stroke:#FFFFFF;stroke-width:2.1896;stroke-linecap:round;stroke-linejoin:round;stroke-miterlimit:10;}
	.st62{fill:none;stroke:#FFFFFF;stroke-width:5.5086;stroke-linecap:round;stroke-linejoin:round;stroke-miterlimit:10;}
	.st63{fill:none;stroke:#FFFFFF;stroke-width:3.6969;stroke-linecap:round;stroke-linejoin:round;stroke-miterlimit:10;}
	.st64{fill:none;stroke:#FFFFFF;stroke-width:2.3907;stroke-linecap:round;stroke-linejoin:round;stroke-miterlimit:10;}
	.st65{fill:none;stroke:#FFFFFF;stroke-width:4.033;stroke-linecap:round;stroke-linejoin:round;stroke-miterlimit:10;}
	.st66{fill:none;stroke:#FFFFFF;stroke-width:1.6938;stroke-linecap:round;stroke-linejoin:round;stroke-miterlimit:10;}
	.st67{fill:none;stroke:#FFFFFF;stroke-width:7.2372;stroke-linecap:round;stroke-linejoin:round;stroke-miterlimit:10;}
	.st68{fill:none;stroke:#FFFFFF;stroke-width:3.7715;stroke-linecap:round;stroke-linejoin:round;stroke-miterlimit:10;}
	.st69{fill:none;stroke:#FFFFFF;stroke-width:4.1923;stroke-linecap:round;stroke-linejoin:round;stroke-miterlimit:10;}
	.st70{fill:none;stroke:#FFFFFF;stroke-width:1.3681;stroke-linecap:round;stroke-linejoin:round;stroke-miterlimit:10;}
	.st71{fill:none;stroke:#FFFFFF;stroke-width:2.4476;stroke-linecap:round;stroke-linejoin:round;stroke-miterlimit:10;}
	.st72{fill:none;stroke:#FFFFFF;stroke-width:2.6701;stroke-linecap:round;stroke-linejoin:round;stroke-miterlimit:10;}
	.st73{fill:none;stroke:#FFFFFF;stroke-width:2.027;stroke-linecap:round;stroke-linejoin:round;stroke-miterlimit:10;}
	.st74{fill:none;stroke:#FFFFFF;stroke-width:2.12;stroke-linecap:round;stroke-linejoin:round;stroke-miterlimit:10;}
	.st75{fill:none;stroke:#FFFFFF;stroke-width:1.0068;stroke-linecap:round;stroke-linejoin:round;stroke-miterlimit:10;}
	.st76{fill:none;stroke:#FFFFFF;stroke-width:4.7102;stroke-linecap:round;stroke-linejoin:round;stroke-miterlimit:10;}
	.st77{fill:none;stroke:#FFFFFF;stroke-width:4.5799;stroke-linecap:round;stroke-linejoin:round;stroke-miterlimit:10;}
	.st78{fill:none;stroke:#FFFFFF;stroke-width:1.6767;stroke-linecap:round;stroke-linejoin:round;stroke-miterlimit:10;}
	.st79{fill:none;stroke:#FFFFFF;stroke-width:5.8436;stroke-linecap:round;stroke-linejoin:round;stroke-miterlimit:10;}
	.st80{fill:none;stroke:#FFFFFF;stroke-width:4.0759;stroke-linecap:round;stroke-linejoin:round;stroke-miterlimit:10;}
	.st81{fill:none;stroke:#FFFFFF;stroke-width:3.0831;stroke-linecap:round;stroke-linejoin:round;stroke-miterlimit:10;}
	.st82{fill:none;stroke:#FFFFFF;stroke-width:4.6797;stroke-linecap:round;stroke-linejoin:round;stroke-miterlimit:10;}
	.st83{fill:none;stroke:#FFFFFF;stroke-width:3.0107;stroke-linecap:round;stroke-linejoin:round;stroke-miterlimit:10;}
	.st84{fill:none;stroke:#FFFFFF;stroke-width:6.8386;stroke-linecap:round;stroke-linejoin:round;stroke-miterlimit:10;}
	.st85{fill:none;stroke:#FFFFFF;stroke-width:4.4223;stroke-linecap:round;stroke-linejoin:round;stroke-miterlimit:10;}
	.st86{fill:none;stroke:#FFFFFF;stroke-width:7.4603;stroke-linecap:round;stroke-linejoin:round;stroke-miterlimit:10;}
	.st87{fill:none;stroke:#FFFFFF;stroke-width:4.4234;stroke-linecap:round;stroke-linejoin:round;stroke-miterlimit:10;}
	.st88{fill:none;stroke:#FFFFFF;stroke-width:6.9766;stroke-linecap:round;stroke-linejoin:round;stroke-miterlimit:10;}
	.st89{fill:none;stroke:#FFFFFF;stroke-width:7.7549;stroke-linecap:round;stroke-linejoin:round;stroke-miterlimit:10;}
	.st90{fill:none;stroke:#FFFFFF;stroke-width:3.9216;stroke-linecap:round;stroke-linejoin:round;stroke-miterlimit:10;}
	.st91{fill:none;stroke:#FFFFFF;stroke-width:7.152;stroke-linecap:round;stroke-linejoin:round;stroke-miterlimit:10;}
	.st92{fill:none;stroke:#FFFFFF;stroke-width:10.4724;stroke-linecap:round;stroke-linejoin:round;stroke-miterlimit:10;}
	.st93{fill:none;stroke:#FFFFFF;stroke-width:3.576;stroke-linecap:round;stroke-linejoin:round;stroke-miterlimit:10;}
	.st94{fill:none;stroke:#FFFFFF;stroke-width:2.933;stroke-linecap:round;stroke-linejoin:round;stroke-miterlimit:10;}
	.st95{fill:none;stroke:#FFFFFF;stroke-width:4.9756;stroke-linecap:round;stroke-linejoin:round;stroke-miterlimit:10;}
	.st96{fill:none;stroke:#FFFFFF;stroke-width:1.4569;stroke-linecap:round;stroke-linejoin:round;stroke-miterlimit:10;}
	.st97{fill:none;stroke:#FFFFFF;stroke-width:5.2362;stroke-linecap:round;stroke-linejoin:round;stroke-miterlimit:10;}
	.st98{fill:none;stroke:#FFFFFF;stroke-width:5.8661;stroke-linecap:round;stroke-linejoin:round;stroke-miterlimit:10;}
	.st99{fill:none;stroke:#FFFFFF;stroke-width:2.1991;stroke-linecap:round;stroke-linejoin:round;stroke-miterlimit:10;}
	.st100{fill:none;stroke:#FFFFFF;stroke-width:3.975;stroke-linecap:round;stroke-linejoin:round;stroke-miterlimit:10;}
	.st101{fill:none;stroke:#FFFFFF;stroke-width:5.5308;stroke-linecap:round;stroke-linejoin:round;stroke-miterlimit:10;}
	.st102{fill:none;stroke:#FFFFFF;stroke-width:1.9744;stroke-linecap:round;stroke-linejoin:round;stroke-miterlimit:10;}
	.st103{fill:none;stroke:#FFFFFF;stroke-width:1.5273;stroke-linecap:round;stroke-linejoin:round;stroke-miterlimit:10;}
	.st104{fill:none;stroke:#FFFFFF;stroke-width:2.0867;stroke-linecap:round;stroke-linejoin:round;stroke-miterlimit:10;}
	.st105{fill:none;stroke:#FFFFFF;stroke-width:5.2627;stroke-linecap:round;stroke-linejoin:round;stroke-miterlimit:10;}
	.st106{fill:none;stroke:#FFFFFF;stroke-width:3.2657;stroke-linecap:round;stroke-linejoin:round;stroke-miterlimit:10;}
</style>
<g id="Stars">
	<g>
		<line class="st0" x1="64.4" y1="126.7" x2="109.5" y2="77.6"/>
		<line class="st0" x1="111.6" y1="124.7" x2="62.4" y2="79.6"/>
	</g>
	<g>
		<line class="st1" x1="1176.4" y1="109" x2="1213.6" y2="16.8"/>
		<line class="st1" x1="1241.1" y1="81.5" x2="1148.9" y2="44.3"/>
	</g>
	<g>
		<line class="st2" x1="1483.7" y1="57.4" x2="1444.7" y2="-34.2"/>
		<line class="st2" x1="1510" y1="-7.9" x2="1418.5" y2="31.1"/>
	</g>
	<g>
		<line class="st3" x1="22.2" y1="54.5" x2="65" y2="29.2"/>
		<line class="st3" x1="56.2" y1="63.2" x2="30.9" y2="20.4"/>
	</g>
	<g>
		<line class="st4" x1="177.7" y1="106" x2="186.8" y2="22.1"/>
		<line class="st4" x1="224.2" y1="68.6" x2="140.3" y2="59.5"/>
	</g>
	<g>
		<line class="st5" x1="93.1" y1="50.3" x2="106.2" y2="15.5"/>
		<line class="st5" x1="117.1" y1="39.5" x2="82.2" y2="26.3"/>
	</g>
	<g>
		<line class="st0" x1="880.4" y1="133.8" x2="830.4" y2="89.5"/>
		<line class="st0" x1="877.5" y1="86.7" x2="833.2" y2="136.6"/>
	</g>
	<g>
		<line class="st6" x1="1849.5" y1="147.2" x2="1810.3" y2="132.2"/>
		<line class="st6" x1="1837.4" y1="120.1" x2="1822.4" y2="159.3"/>
	</g>
	<g>
		<line class="st2" x1="1822.7" y1="26" x2="1723.3" y2="22"/>
		<line class="st2" x1="1775" y1="-25.7" x2="1771" y2="73.7"/>
	</g>
	<g>
		<line class="st3" x1="1578.3" y1="66" x2="1573.8" y2="16.5"/>
		<line class="st3" x1="1600.8" y1="39" x2="1551.3" y2="43.5"/>
	</g>
	<g>
		<line class="st4" x1="574.8" y1="96.1" x2="503" y2="51.9"/>
		<line class="st4" x1="561" y1="38.1" x2="516.8" y2="109.9"/>
	</g>
	<g>
		<line class="st5" x1="1824.2" y1="89.3" x2="1798.3" y2="62.5"/>
		<line class="st5" x1="1824.6" y1="62.9" x2="1797.8" y2="88.8"/>
	</g>
	
		<ellipse transform="matrix(0.4283 -0.9036 0.9036 0.4283 251.8201 605.501)" class="st7" cx="604.4" cy="103.7" rx="13.3" ry="13.3"/>
	<ellipse transform="matrix(0.695 -0.719 0.719 0.695 236.4892 646.4833)" class="st8" cx="880.3" cy="44.5" rx="23.2" ry="23.2"/>
	<ellipse transform="matrix(0.695 -0.719 0.719 0.695 186.0566 507.2798)" class="st9" cx="691" cy="34.3" rx="23.2" ry="23.2"/>
	
		<ellipse transform="matrix(0.4283 -0.9036 0.9036 0.4283 190.241 491.9719)" class="st7" cx="483.9" cy="95.6" rx="13.3" ry="13.3"/>
	<g>
		<line class="st10" x1="411.2" y1="50.1" x2="465.9" y2="48.2"/>
		<line class="st10" x1="439.5" y1="76.5" x2="437.7" y2="21.8"/>
	</g>
	<g>
		<line class="st11" x1="1834.3" y1="98" x2="1909.7" y2="66.7"/>
		<line class="st11" x1="1887.6" y1="120.1" x2="1856.4" y2="44.7"/>
	</g>
	<g>
		<line class="st12" x1="1636.2" y1="92.6" x2="1675.6" y2="103.1"/>
		<line class="st12" x1="1650.6" y1="117.6" x2="1661.2" y2="78.1"/>
	</g>
	<g>
		<line class="st13" x1="1644.2" y1="61.4" x2="1698.6" y2="18.5"/>
		<line class="st13" x1="1692.8" y1="67.1" x2="1650" y2="12.8"/>
	</g>
	<g>
		<line class="st14" x1="627.8" y1="66" x2="655.8" y2="53.6"/>
		<line class="st14" x1="648" y1="73.8" x2="635.6" y2="45.8"/>
	</g>
	
		<ellipse transform="matrix(0.7137 -0.7005 0.7005 0.7137 128.8945 434.8881)" class="st15" cx="596.4" cy="59.8" rx="15.3" ry="15.3"/>
	
		<ellipse transform="matrix(9.348942e-03 -1 1 9.348942e-03 1618.1122 1950.8188)" class="st16" cx="1793.6" cy="158.8" rx="8" ry="8"/>
	
		<ellipse transform="matrix(9.348942e-03 -1 1 9.348942e-03 304.8486 514.9032)" class="st17" cx="412.3" cy="103.6" rx="19" ry="19"/>
	
		<ellipse transform="matrix(0.7137 -0.7005 0.7005 0.7137 441.3071 1231.3367)" class="st18" cx="1726.9" cy="75.9" rx="10.9" ry="10.9"/>
	<ellipse transform="matrix(0.695 -0.719 0.719 0.695 149.2244 374.2177)" class="st8" cx="515.7" cy="11.2" rx="23.2" ry="23.2"/>
	<g>
		<line class="st19" x1="1389.3" y1="224.6" x2="1350.2" y2="211.6"/>
		<line class="st19" x1="1376.3" y1="198.6" x2="1363.2" y2="237.7"/>
	</g>
	
		<ellipse transform="matrix(0.7137 -0.7005 0.7005 0.7137 252.3746 1039.6647)" class="st20" cx="1397.9" cy="211.1" rx="7.5" ry="7.5"/>
	
		<ellipse transform="matrix(0.695 -0.719 0.719 0.695 279.553 1033.8251)" class="st21" cx="1358.4" cy="187.4" rx="11.3" ry="11.3"/>
</g>
<g id="Circles">
	<circle class="st7" cx="132.5" cy="106.3" r="13.3"/>
	<ellipse transform="matrix(0.7071 -0.7071 0.7071 0.7071 -52.6735 46.6709)" class="st8" cx="30" cy="86.9" rx="23.2" ry="23.2"/>
	
		<ellipse transform="matrix(0.7071 -0.7071 0.7071 0.7071 341.2924 903.3279)" class="st9" cx="1261.1" cy="39.7" rx="23.2" ry="23.2"/>
	<circle class="st7" cx="137" cy="22.9" r="13.3"/>
	<g>
		<line class="st10" x1="290.3" y1="9" x2="315.4" y2="57.7"/>
		<line class="st10" x1="278.5" y1="45.9" x2="327.2" y2="20.8"/>
	</g>
	<g>
		<line class="st11" x1="1300.6" y1="20.2" x2="1361.1" y2="74.9"/>
		<line class="st11" x1="1303.5" y1="77.8" x2="1358.2" y2="17.3"/>
	</g>
	<g>
		<line class="st12" x1="262.6" y1="82.1" x2="270" y2="122.2"/>
		<line class="st12" x1="246.2" y1="105.8" x2="286.4" y2="98.5"/>
	</g>
	<g>
		<line class="st13" x1="294.3" y1="76" x2="356.2" y2="106.7"/>
		<line class="st13" x1="309.9" y1="122.3" x2="340.6" y2="60.4"/>
	</g>
	<g>
		<line class="st14" x1="1371.9" y1="37.6" x2="1395" y2="57.6"/>
		<line class="st14" x1="1373.5" y1="59.1" x2="1393.5" y2="36"/>
	</g>
	
		<ellipse transform="matrix(0.3449 -0.9386 0.9386 0.3449 40.7078 278.2225)" class="st15" cx="219.7" cy="109.9" rx="15.3" ry="15.3"/>
	<ellipse transform="matrix(0.9076 -0.4198 0.4198 0.9076 86.8029 591.1458)" class="st22" cx="1386.5" cy="98.4" rx="19" ry="19"/>
	<ellipse transform="matrix(0.9076 -0.4198 0.4198 0.9076 8.5654 104.7607)" class="st17" cx="242.3" cy="32.9" rx="19" ry="19"/>
	
		<ellipse transform="matrix(0.3449 -0.9386 0.9386 0.3449 106.7095 474.0415)" class="st18" cx="393" cy="160.6" rx="10.9" ry="10.9"/>
	<g>
		<line class="st23" x1="1706.6" y1="169.8" x2="1675.5" y2="128.1"/>
		<line class="st23" x1="1711.9" y1="133.3" x2="1670.2" y2="164.5"/>
	</g>
	<g>
		<line class="st24" x1="793.2" y1="73.6" x2="705.7" y2="91"/>
		<line class="st24" x1="740.8" y1="38.6" x2="758.1" y2="126.1"/>
	</g>
	<g>
		<line class="st25" x1="834" y1="54.7" x2="787.2" y2="5.3"/>
		<line class="st25" x1="835.3" y1="6.6" x2="785.9" y2="53.4"/>
	</g>
	<g>
		<line class="st26" x1="1550.8" y1="90.7" x2="1501.2" y2="66.3"/>
		<line class="st26" x1="1538.2" y1="53.7" x2="1513.9" y2="103.3"/>
	</g>
	<g>
		<line class="st27" x1="1000.3" y1="28" x2="948.2" y2="83"/>
		<line class="st27" x1="946.8" y1="29.4" x2="1001.7" y2="81.5"/>
	</g>
	
		<ellipse transform="matrix(0.9115 -0.4113 0.4113 0.9115 63.2995 475.0823)" class="st7" cx="1135.6" cy="90.5" rx="13.3" ry="13.3"/>
	<g>
		<line class="st28" x1="1039.2" y1="119.2" x2="1053.6" y2="77.4"/>
		<line class="st28" x1="1067.3" y1="105.5" x2="1025.5" y2="91.1"/>
	</g>
	<g>
		<line class="st29" x1="1554" y1="153.1" x2="1580.3" y2="128"/>
		<line class="st29" x1="1579.7" y1="153.7" x2="1554.6" y2="127.5"/>
	</g>
	<g>
		<line class="st30" x1="1462.6" y1="136.5" x2="1453.3" y2="60.1"/>
		<line class="st30" x1="1496.1" y1="93.7" x2="1419.7" y2="102.9"/>
	</g>
	
		<ellipse transform="matrix(0.3651 -0.931 0.931 0.3651 642.1345 1010.2544)" class="st31" cx="1061.7" cy="34.3" rx="15.3" ry="15.3"/>
	
		<ellipse transform="matrix(0.5197 -0.8544 0.8544 0.5197 683.9651 1402.4968)" class="st32" cx="1589.3" cy="93" rx="14.7" ry="14.7"/>
	
		<ellipse transform="matrix(0.9716 -0.2367 0.2367 0.9716 19.2258 420.4072)" class="st33" cx="1760.5" cy="130.1" rx="13.3" ry="13.3"/>
	
		<ellipse transform="matrix(0.6475 -0.7621 0.7621 0.6475 345.0129 1028.1666)" class="st34" cx="1283.9" cy="141.2" rx="10.6" ry="10.6"/>
	<g>
		<line class="st35" x1="1321.3" y1="147.5" x2="1360.5" y2="150.3"/>
		<line class="st35" x1="1339.5" y1="168.5" x2="1342.3" y2="129.3"/>
	</g>
	<g>
		<line class="st36" x1="1382.8" y1="172.3" x2="1439" y2="155.6"/>
		<line class="st36" x1="1419.3" y1="192" x2="1402.6" y2="135.8"/>
	</g>
	<g>
		<line class="st37" x1="1101.1" y1="33.4" x2="1135.3" y2="46.5"/>
		<line class="st37" x1="1111.6" y1="57" x2="1124.7" y2="22.8"/>
	</g>
	<g>
		<line class="st38" x1="1839.1" y1="177.1" x2="1856.4" y2="161.1"/>
		<line class="st38" x1="1855.7" y1="177.7" x2="1839.7" y2="160.4"/>
	</g>
	<g>
		<line class="st39" x1="1420.1" y1="135" x2="1441" y2="128.3"/>
		<line class="st39" x1="1433.9" y1="142.1" x2="1427.2" y2="121.2"/>
	</g>
	
		<ellipse transform="matrix(0.7825 -0.6227 0.6227 0.7825 130.7804 597.796)" class="st40" cx="921" cy="111.7" rx="13.7" ry="13.7"/>
	
		<ellipse transform="matrix(0.9744 -0.2248 0.2248 0.9744 12.7787 428.1729)" class="st41" cx="1886.7" cy="158" rx="8.9" ry="8.9"/>
	
		<ellipse transform="matrix(0.2677 -0.9635 0.9635 0.2677 245.8374 383.5029)" class="st31" cx="375.2" cy="30" rx="15.3" ry="15.3"/>
	
		<ellipse transform="matrix(0.5301 -0.848 0.848 0.5301 445.8648 969.0464)" class="st42" cx="1097.2" cy="82.3" rx="9.8" ry="9.8"/>
	<g>
		<line class="st43" x1="66.2" y1="193.7" x2="105.3" y2="218"/>
		<line class="st43" x1="73.6" y1="225.4" x2="97.9" y2="186.4"/>
	</g>
	
		<ellipse transform="matrix(0.5639 -0.8259 0.8259 0.5639 -166.3517 132.0237)" class="st44" cx="41.8" cy="223.5" rx="16" ry="16"/>
	<ellipse transform="matrix(0.5639 -0.8259 0.8259 0.5639 -60.198 230.4496)" class="st45" cx="188.1" cy="172.2" rx="16" ry="16"/>
	<g>
		<line class="st46" x1="122" y1="159.8" x2="162.3" y2="144.4"/>
		<line class="st46" x1="149.8" y1="172.2" x2="134.4" y2="132"/>
	</g>
	<g>
		<line class="st47" x1="121.9" y1="209.4" x2="159.5" y2="237.6"/>
		<line class="st47" x1="126.6" y1="242.3" x2="154.8" y2="204.7"/>
	</g>
	<g>
		<line class="st48" x1="30.6" y1="188.9" x2="43.6" y2="138.4"/>
		<line class="st48" x1="62.4" y1="170.2" x2="11.8" y2="157.1"/>
	</g>
	
		<ellipse transform="matrix(0.6663 -0.7457 0.7457 0.6663 -88.047 105.7059)" class="st49" cx="74.1" cy="151.2" rx="9.5" ry="9.5"/>
	<g>
		<line class="st50" x1="488.1" y1="117.3" x2="475.4" y2="163.8"/>
		<line class="st50" x1="458.5" y1="134.2" x2="504.9" y2="146.9"/>
	</g>
	<g>
		<line class="st51" x1="377.7" y1="188.9" x2="401.5" y2="230.7"/>
		<line class="st51" x1="368.7" y1="221.8" x2="410.5" y2="197.9"/>
	</g>
	<g>
		<line class="st51" x1="218.3" y1="162.4" x2="266.3" y2="158.8"/>
		<line class="st51" x1="244.2" y1="184.6" x2="240.5" y2="136.6"/>
	</g>
	<g>
		<line class="st52" x1="317.9" y1="206.2" x2="322.8" y2="229.8"/>
		<line class="st52" x1="308.6" y1="220.5" x2="332.1" y2="215.5"/>
	</g>
	<g>
		<line class="st53" x1="288.5" y1="196.7" x2="269" y2="193.9"/>
		<line class="st53" x1="280.2" y1="185.5" x2="277.4" y2="205.1"/>
	</g>
	<g>
		<line class="st54" x1="286.4" y1="212.2" x2="262.7" y2="235.8"/>
		<line class="st54" x1="262.8" y1="212.1" x2="286.4" y2="235.8"/>
	</g>
	
		<ellipse transform="matrix(0.6275 -0.7786 0.7786 0.6275 -71.8016 269.6085)" class="st55" cx="245.9" cy="209.8" rx="5.3" ry="5.3"/>
	
		<ellipse transform="matrix(0.6202 -0.7845 0.7845 0.6202 14.9636 436.553)" class="st56" cx="458.3" cy="202.8" rx="11.2" ry="11.2"/>
	<g>
		<line class="st57" x1="449.7" y1="170.3" x2="417.6" y2="147.4"/>
		<line class="st57" x1="445.1" y1="142.8" x2="422.2" y2="174.9"/>
	</g>
	<g>
		<line class="st58" x1="435.8" y1="234.9" x2="423.5" y2="226.6"/>
		<line class="st58" x1="433.8" y1="224.6" x2="425.5" y2="236.9"/>
	</g>
	<g>
		<line class="st59" x1="329.7" y1="192.8" x2="354.9" y2="201.7"/>
		<line class="st59" x1="337.8" y1="209.9" x2="346.7" y2="184.7"/>
	</g>
	<g>
		<line class="st60" x1="339.7" y1="125" x2="348.4" y2="161.2"/>
		<line class="st60" x1="326" y1="147.5" x2="362.1" y2="138.7"/>
	</g>
	<ellipse transform="matrix(0.4169 -0.909 0.909 0.4169 14.019 392.4329)" class="st61" cx="312.9" cy="185.3" rx="7.1" ry="7.1"/>
	<g>
		<line class="st62" x1="1233.6" y1="143.9" x2="1228.5" y2="110.8"/>
		<line class="st62" x1="1247.6" y1="124.8" x2="1214.6" y2="129.9"/>
	</g>
	<g>
		<line class="st63" x1="660.5" y1="127" x2="643.7" y2="112.1"/>
		<line class="st63" x1="659.6" y1="111.1" x2="644.7" y2="127.9"/>
	</g>
	<ellipse transform="matrix(0.695 -0.719 0.719 0.695 136.6745 513.3157)" class="st64" cx="673.4" cy="95.6" rx="7.8" ry="7.8"/>
	<ellipse transform="matrix(0.695 -0.719 0.719 0.695 57.8981 430.7028)" class="st65" cx="536.6" cy="147.1" rx="7.8" ry="7.8"/>
	<g>
		<line class="st66" x1="499.1" y1="189.5" x2="508.5" y2="185.3"/>
		<line class="st66" x1="505.9" y1="192.1" x2="501.7" y2="182.7"/>
	</g>
	<g>
		<line class="st67" x1="600.8" y1="153" x2="571.3" y2="158.8"/>
		<line class="st67" x1="583.1" y1="141.2" x2="589" y2="170.6"/>
	</g>
	<g>
		<line class="st68" x1="614.5" y1="146.6" x2="598.7" y2="130"/>
		<line class="st68" x1="614.9" y1="130.4" x2="598.3" y2="146.2"/>
	</g>
	<g>
		<line class="st69" x1="1197" y1="137.8" x2="1179.5" y2="156.3"/>
		<line class="st69" x1="1179" y1="138.3" x2="1197.5" y2="155.8"/>
	</g>
	
		<ellipse transform="matrix(0.5739 -0.8189 0.8189 0.5739 413.9445 1151.5983)" class="st70" cx="1313.6" cy="178" rx="4.5" ry="4.5"/>
	<g>
		<line class="st71" x1="1274.4" y1="181.1" x2="1279.2" y2="167.1"/>
		<line class="st71" x1="1283.8" y1="176.5" x2="1269.8" y2="171.7"/>
	</g>
	
		<ellipse transform="matrix(0.3651 -0.931 0.931 0.3651 308.6432 732.1259)" class="st72" cx="691.1" cy="139.8" rx="5.2" ry="5.2"/>
	<g>
		<line class="st73" x1="704.2" y1="139.4" x2="715.7" y2="143.8"/>
		<line class="st73" x1="707.8" y1="147.4" x2="712.2" y2="135.9"/>
	</g>
	
		<ellipse transform="matrix(0.7825 -0.6227 0.6227 0.7825 154.8244 749.7621)" class="st74" cx="1150.5" cy="153.3" rx="4.6" ry="4.6"/>
	
		<ellipse transform="matrix(0.5301 -0.848 0.848 0.5301 464.9741 1176.4191)" class="st75" cx="1293.9" cy="168.7" rx="3.3" ry="3.3"/>
	<g>
		<line class="st76" x1="970" y1="99.7" x2="994.2" y2="115"/>
		<line class="st76" x1="974.5" y1="119.4" x2="989.7" y2="95.3"/>
	</g>
	<g>
		<line class="st77" x1="1588.9" y1="187.1" x2="1561.3" y2="190"/>
		<line class="st77" x1="1573.7" y1="174.7" x2="1576.6" y2="202.4"/>
	</g>
	<ellipse transform="matrix(0.9375 -0.3481 0.3481 0.9375 23.622 525.448)" class="st78" cx="1474.1" cy="197" rx="5.5" ry="5.5"/>
	<g>
		<line class="st79" x1="1490.6" y1="141.3" x2="1520.6" y2="160.3"/>
		<line class="st79" x1="1496.1" y1="165.8" x2="1515.1" y2="135.8"/>
	</g>
	<g>
		<line class="st80" x1="1628" y1="142.4" x2="1617.4" y2="164.8"/>
		<line class="st80" x1="1611.5" y1="148.3" x2="1633.8" y2="158.9"/>
	</g>
	
		<ellipse transform="matrix(0.1806 -0.9836 0.9836 0.1806 1141.4681 1748.6007)" class="st81" cx="1620.2" cy="189.2" rx="10" ry="10"/>
	<ellipse transform="matrix(0.8232 -0.5678 0.5678 0.8232 165.7785 907.0162)" class="st82" cx="1539.1" cy="187.3" rx="9" ry="9"/>
	
		<ellipse transform="matrix(0.5197 -0.8544 0.8544 0.5197 725.8512 1713.3427)" class="st32" cx="1886.7" cy="211.1" rx="14.7" ry="14.7"/>
	
		<ellipse transform="matrix(0.4429 -0.8966 0.8966 0.4429 390.6954 1013.8104)" class="st83" cx="1011.1" cy="192.5" rx="9.8" ry="9.8"/>
	<g>
		<line class="st84" x1="665.1" y1="197.9" x2="632.4" y2="172.3"/>
		<line class="st84" x1="661.6" y1="168.7" x2="636" y2="201.4"/>
	</g>
	
		<ellipse transform="matrix(0.6486 -0.7611 0.7611 0.6486 110.2873 585.989)" class="st85" cx="689.8" cy="173.6" rx="14.4" ry="14.4"/>
	
		<ellipse transform="matrix(0.6486 -0.7611 0.7611 0.6486 165.8407 718.2355)" class="st86" cx="860.8" cy="179.5" rx="14.4" ry="14.4"/>
	<g>
		<line class="st87" x1="1245.7" y1="167.1" x2="1208.1" y2="177"/>
		<line class="st87" x1="1221.9" y1="153.3" x2="1231.8" y2="190.8"/>
	</g>
	<g>
		<line class="st88" x1="922.1" y1="186.7" x2="891.1" y2="157.8"/>
		<line class="st88" x1="921" y1="156.8" x2="892.2" y2="187.7"/>
	</g>
	<g>
		<line class="st89" x1="603.6" y1="181.2" x2="587.1" y2="225.2"/>
		<line class="st89" x1="573.3" y1="194.9" x2="617.4" y2="211.5"/>
	</g>
	
		<ellipse transform="matrix(0.7419 -0.6705 0.6705 0.7419 8.8132 412.2629)" class="st90" cx="539.9" cy="194.7" rx="8.5" ry="8.5"/>
	<g>
		<line class="st91" x1="753.9" y1="198.7" x2="769.7" y2="158.3"/>
		<line class="st91" x1="782" y1="186.4" x2="741.6" y2="170.6"/>
	</g>
	<g>
		<line class="st92" x1="1027.5" y1="168.6" x2="1010.1" y2="128.9"/>
		<line class="st92" x1="1038.7" y1="140" x2="998.9" y2="157.4"/>
	</g>
	<g>
		<line class="st92" x1="832.3" y1="168.3" x2="788.9" y2="167"/>
		<line class="st92" x1="811.3" y1="146" x2="810" y2="189.4"/>
	</g>
	<g>
		<line class="st93" x1="1093.3" y1="151.4" x2="1091.2" y2="129.8"/>
		<line class="st93" x1="1103" y1="139.5" x2="1081.5" y2="141.6"/>
	</g>
	<g>
		<line class="st94" x1="1116.4" y1="160.9" x2="1133.7" y2="165.4"/>
		<line class="st94" x1="1122.8" y1="171.8" x2="1127.3" y2="154.5"/>
	</g>
	<g>
		<line class="st95" x1="1119.8" y1="147.3" x2="1143.3" y2="128.4"/>
		<line class="st95" x1="1141" y1="149.6" x2="1122.1" y2="126.1"/>
	</g>
	
		<ellipse transform="matrix(0.7068 -0.7074 0.7074 0.7068 150.9417 610.6176)" class="st96" cx="812.1" cy="123.2" rx="4.7" ry="4.7"/>
	
		<ellipse transform="matrix(0.7002 -0.714 0.714 0.7002 156.2902 731.9944)" class="st97" cx="949.7" cy="179.9" rx="10.1" ry="10.1"/>
	<g>
		<line class="st98" x1="966" y1="196.5" x2="992.7" y2="220.1"/>
		<line class="st98" x1="967.5" y1="221.7" x2="991.1" y2="195"/>
	</g>
	<g>
		<line class="st99" x1="972.9" y1="153.3" x2="983.1" y2="161.9"/>
		<line class="st99" x1="973.7" y1="162.7" x2="982.3" y2="152.5"/>
	</g>
	<g>
		<line class="st100" x1="1070.9" y1="169.7" x2="1049.1" y2="159.3"/>
		<line class="st100" x1="1065.2" y1="153.7" x2="1054.8" y2="175.4"/>
	</g>
	<g>
		<line class="st101" x1="1048.6" y1="219" x2="1044.2" y2="185.7"/>
		<line class="st101" x1="1063" y1="200.2" x2="1029.8" y2="204.6"/>
	</g>
	
		<ellipse transform="matrix(0.5113 -0.8594 0.8594 0.5113 387.6273 1017.1137)" class="st102" cx="1088.1" cy="167.7" rx="6.4" ry="6.4"/>
	<g>
		<line class="st103" x1="733.9" y1="193.9" x2="725.1" y2="196.7"/>
		<line class="st103" x1="728.1" y1="190.9" x2="730.9" y2="199.7"/>
	</g>
	<g>
		<line class="st104" x1="8.6" y1="215.9" x2="15.9" y2="199.1"/>
		<line class="st104" x1="20.6" y1="211.1" x2="3.8" y2="203.9"/>
	</g>
</g>
<ellipse transform="matrix(0.5197 -0.8544 0.8544 0.5197 815.4243 1700.4166)" class="st105" cx="1920" cy="125" rx="17.1" ry="17.1"/>
<ellipse transform="matrix(0.5197 -0.8544 0.8544 0.5197 -106.7953 60.0403)" class="st105" cx="0" cy="125" rx="17.1" ry="17.1"/>
<g>
	<line class="st106" x1="1898.6" y1="175.8" x2="1916.4" y2="184.6"/>
	<line class="st106" x1="1903.1" y1="189.1" x2="1911.9" y2="171.3"/>
</g>
</svg>
