<?xml version="1.0" encoding="utf-8"?>
<!-- Generator: Adobe Illustrator 21.0.2, SVG Export Plug-In . SVG Version: 6.00 Build 0)  -->
<svg version="1.1" id="Lag_1" xmlns="http://www.w3.org/2000/svg" xmlns:xlink="http://www.w3.org/1999/xlink" x="0px" y="0px"
	 viewBox="0 0 1920 250" style="enable-background:new 0 0 1920 250;" xml:space="preserve">
<style type="text/css">
	.st0{fill:none;stroke:#FFFFFF;stroke-width:11;stroke-linecap:round;stroke-linejoin:round;stroke-miterlimit:10;}
	.st1{fill:none;stroke:#FFFFFF;stroke-width:16.3904;stroke-linecap:round;stroke-linejoin:round;stroke-miterlimit:10;}
	.st2{fill:none;stroke:#FFFFFF;stroke-width:24;stroke-linecap:round;stroke-linejoin:round;stroke-miterlimit:10;}
	.st3{fill:none;stroke:#FFFFFF;stroke-width:8.1952;stroke-linecap:round;stroke-linejoin:round;stroke-miterlimit:10;}
	.st4{fill:none;stroke:#FFFFFF;stroke-width:13.9024;stroke-linecap:round;stroke-linejoin:round;stroke-miterlimit:10;}
	.st5{fill:none;stroke:#FFFFFF;stroke-width:6.1445;stroke-linecap:round;stroke-linejoin:round;stroke-miterlimit:10;}
	.st6{fill:none;stroke:#FFFFFF;stroke-width:6.913;stroke-linecap:round;stroke-linejoin:round;stroke-miterlimit:10;}
	.st7{fill:none;stroke:#FFFFFF;stroke-width:4.0707;stroke-linecap:round;stroke-linejoin:round;stroke-miterlimit:10;}
	.st8{fill:none;stroke:#FFFFFF;stroke-width:7.1134;stroke-linecap:round;stroke-linejoin:round;stroke-miterlimit:10;}
	.st9{fill:none;stroke:#FFFFFF;stroke-width:12;stroke-linecap:round;stroke-linejoin:round;stroke-miterlimit:10;}
	.st10{fill:none;stroke:#FFFFFF;stroke-width:9.0222;stroke-linecap:round;stroke-linejoin:round;stroke-miterlimit:10;}
	.st11{fill:none;stroke:#FFFFFF;stroke-width:13.4435;stroke-linecap:round;stroke-linejoin:round;stroke-miterlimit:10;}
	.st12{fill:none;stroke:#FFFFFF;stroke-width:6.7217;stroke-linecap:round;stroke-linejoin:round;stroke-miterlimit:10;}
	.st13{fill:none;stroke:#FFFFFF;stroke-width:11.4028;stroke-linecap:round;stroke-linejoin:round;stroke-miterlimit:10;}
	.st14{fill:none;stroke:#FFFFFF;stroke-width:5.0397;stroke-linecap:round;stroke-linejoin:round;stroke-miterlimit:10;}
	.st15{fill:none;stroke:#FFFFFF;stroke-width:7.0303;stroke-linecap:round;stroke-linejoin:round;stroke-miterlimit:10;}
	.st16{fill:none;stroke:#FFFFFF;stroke-width:2.4608;stroke-linecap:round;stroke-linejoin:round;stroke-miterlimit:10;}
	.st17{fill:none;stroke:#FFFFFF;stroke-width:9.8425;stroke-linecap:round;stroke-linejoin:round;stroke-miterlimit:10;}
	.st18{fill:none;stroke:#FFFFFF;stroke-width:3.3388;stroke-linecap:round;stroke-linejoin:round;stroke-miterlimit:10;}
	.st19{fill:none;stroke:#FFFFFF;stroke-width:6.7965;stroke-linecap:round;stroke-linejoin:round;stroke-miterlimit:10;}
	.st20{fill:none;stroke:#FFFFFF;stroke-width:3.4369;stroke-linecap:round;stroke-linejoin:round;stroke-miterlimit:10;}
	.st21{fill:none;stroke:#FFFFFF;stroke-width:3.4775;stroke-linecap:round;stroke-linejoin:round;stroke-miterlimit:10;}
	.st22{fill:none;stroke:#FFFFFF;stroke-width:5.8344;stroke-linecap:round;stroke-linejoin:round;stroke-miterlimit:10;}
	.st23{fill:none;stroke:#FFFFFF;stroke-width:8.5764;stroke-linecap:round;stroke-linejoin:round;stroke-miterlimit:10;}
	.st24{fill:none;stroke:#FFFFFF;stroke-width:21.534;stroke-linecap:round;stroke-linejoin:round;stroke-miterlimit:10;}
	.st25{fill:none;stroke:#FFFFFF;stroke-width:11.2219;stroke-linecap:round;stroke-linejoin:round;stroke-miterlimit:10;}
	.st26{fill:none;stroke:#FFFFFF;stroke-width:9.1095;stroke-linecap:round;stroke-linejoin:round;stroke-miterlimit:10;}
	.st27{fill:none;stroke:#FFFFFF;stroke-width:12.4739;stroke-linecap:round;stroke-linejoin:round;stroke-miterlimit:10;}
	.st28{fill:none;stroke:#FFFFFF;stroke-width:7.2827;stroke-linecap:round;stroke-linejoin:round;stroke-miterlimit:10;}
	.st29{fill:none;stroke:#FFFFFF;stroke-width:5.982;stroke-linecap:round;stroke-linejoin:round;stroke-miterlimit:10;}
	.st30{fill:none;stroke:#FFFFFF;stroke-width:12.675;stroke-linecap:round;stroke-linejoin:round;stroke-miterlimit:10;}
	.st31{fill:none;stroke:#FFFFFF;stroke-width:7.9447;stroke-linecap:round;stroke-linejoin:round;stroke-miterlimit:10;}
	.st32{fill:none;stroke:#FFFFFF;stroke-width:4.5249;stroke-linecap:round;stroke-linejoin:round;stroke-miterlimit:10;}
	.st33{fill:none;stroke:#FFFFFF;stroke-width:6.8682;stroke-linecap:round;stroke-linejoin:round;stroke-miterlimit:10;}
	.st34{fill:none;stroke:#FFFFFF;stroke-width:3.2591;stroke-linecap:round;stroke-linejoin:round;stroke-miterlimit:10;}
	.st35{fill:none;stroke:#FFFFFF;stroke-width:6.4812;stroke-linecap:round;stroke-linejoin:round;stroke-miterlimit:10;}
	.st36{fill:none;stroke:#FFFFFF;stroke-width:9.6572;stroke-linecap:round;stroke-linejoin:round;stroke-miterlimit:10;}
	.st37{fill:none;stroke:#FFFFFF;stroke-width:6.0311;stroke-linecap:round;stroke-linejoin:round;stroke-miterlimit:10;}
	.st38{fill:none;stroke:#FFFFFF;stroke-width:3.8821;stroke-linecap:round;stroke-linejoin:round;stroke-miterlimit:10;}
	.st39{fill:none;stroke:#FFFFFF;stroke-width:3.6203;stroke-linecap:round;stroke-linejoin:round;stroke-miterlimit:10;}
	.st40{fill:none;stroke:#FFFFFF;stroke-width:6.3079;stroke-linecap:round;stroke-linejoin:round;stroke-miterlimit:10;}
	.st41{fill:none;stroke:#FFFFFF;stroke-width:2.7353;stroke-linecap:round;stroke-linejoin:round;stroke-miterlimit:10;}
	.st42{fill:none;stroke:#FFFFFF;stroke-width:2.9958;stroke-linecap:round;stroke-linejoin:round;stroke-miterlimit:10;}
	.st43{fill:none;stroke:#FFFFFF;stroke-width:7.584;stroke-linecap:round;stroke-linejoin:round;stroke-miterlimit:10;}
	.st44{fill:none;stroke:#FFFFFF;stroke-width:4.9043;stroke-linecap:round;stroke-linejoin:round;stroke-miterlimit:10;}
	.st45{fill:none;stroke:#FFFFFF;stroke-width:8.2734;stroke-linecap:round;stroke-linejoin:round;stroke-miterlimit:10;}
	.st46{fill:none;stroke:#FFFFFF;stroke-width:4.9055;stroke-linecap:round;stroke-linejoin:round;stroke-miterlimit:10;}
	.st47{fill:none;stroke:#FFFFFF;stroke-width:7.737;stroke-linecap:round;stroke-linejoin:round;stroke-miterlimit:10;}
	.st48{fill:none;stroke:#FFFFFF;stroke-width:8.6002;stroke-linecap:round;stroke-linejoin:round;stroke-miterlimit:10;}
	.st49{fill:none;stroke:#FFFFFF;stroke-width:4.349;stroke-linecap:round;stroke-linejoin:round;stroke-miterlimit:10;}
	.st50{fill:none;stroke:#FFFFFF;stroke-width:7.9315;stroke-linecap:round;stroke-linejoin:round;stroke-miterlimit:10;}
	.st51{fill:none;stroke:#FFFFFF;stroke-width:11.6138;stroke-linecap:round;stroke-linejoin:round;stroke-miterlimit:10;}
	.st52{fill:none;stroke:#FFFFFF;stroke-width:3.9657;stroke-linecap:round;stroke-linejoin:round;stroke-miterlimit:10;}
	.st53{fill:none;stroke:#FFFFFF;stroke-width:3.2527;stroke-linecap:round;stroke-linejoin:round;stroke-miterlimit:10;}
	.st54{fill:none;stroke:#FFFFFF;stroke-width:5.5179;stroke-linecap:round;stroke-linejoin:round;stroke-miterlimit:10;}
	.st55{fill:none;stroke:#FFFFFF;stroke-width:1.6157;stroke-linecap:round;stroke-linejoin:round;stroke-miterlimit:10;}
	.st56{fill:none;stroke:#FFFFFF;stroke-width:5.8069;stroke-linecap:round;stroke-linejoin:round;stroke-miterlimit:10;}
	.st57{fill:none;stroke:#FFFFFF;stroke-width:6.5054;stroke-linecap:round;stroke-linejoin:round;stroke-miterlimit:10;}
	.st58{fill:none;stroke:#FFFFFF;stroke-width:2.4388;stroke-linecap:round;stroke-linejoin:round;stroke-miterlimit:10;}
	.st59{fill:none;stroke:#FFFFFF;stroke-width:4.4082;stroke-linecap:round;stroke-linejoin:round;stroke-miterlimit:10;}
	.st60{fill:none;stroke:#FFFFFF;stroke-width:6.1336;stroke-linecap:round;stroke-linejoin:round;stroke-miterlimit:10;}
	.st61{fill:none;stroke:#FFFFFF;stroke-width:2.1896;stroke-linecap:round;stroke-linejoin:round;stroke-miterlimit:10;}
	.st62{fill:none;stroke:#FFFFFF;stroke-width:5.5086;stroke-linecap:round;stroke-linejoin:round;stroke-miterlimit:10;}
	.st63{fill:none;stroke:#FFFFFF;stroke-width:3.6969;stroke-linecap:round;stroke-linejoin:round;stroke-miterlimit:10;}
	.st64{fill:none;stroke:#FFFFFF;stroke-width:2.3907;stroke-linecap:round;stroke-linejoin:round;stroke-miterlimit:10;}
	.st65{fill:none;stroke:#FFFFFF;stroke-width:4.033;stroke-linecap:round;stroke-linejoin:round;stroke-miterlimit:10;}
	.st66{fill:none;stroke:#FFFFFF;stroke-width:1.6938;stroke-linecap:round;stroke-linejoin:round;stroke-miterlimit:10;}
	.st67{fill:none;stroke:#FFFFFF;stroke-width:7.2372;stroke-linecap:round;stroke-linejoin:round;stroke-miterlimit:10;}
	.st68{fill:none;stroke:#FFFFFF;stroke-width:3.7715;stroke-linecap:round;stroke-linejoin:round;stroke-miterlimit:10;}
	.st69{fill:none;stroke:#FFFFFF;stroke-width:4.1923;stroke-linecap:round;stroke-linejoin:round;stroke-miterlimit:10;}
	.st70{fill:none;stroke:#FFFFFF;stroke-width:1.3681;stroke-linecap:round;stroke-linejoin:round;stroke-miterlimit:10;}
	.st71{fill:none;stroke:#FFFFFF;stroke-width:2.4476;stroke-linecap:round;stroke-linejoin:round;stroke-miterlimit:10;}
	.st72{fill:none;stroke:#FFFFFF;stroke-width:2.6701;stroke-linecap:round;stroke-linejoin:round;stroke-miterlimit:10;}
	.st73{fill:none;stroke:#FFFFFF;stroke-width:2.027;stroke-linecap:round;stroke-linejoin:round;stroke-miterlimit:10;}
	.st74{fill:none;stroke:#FFFFFF;stroke-width:2.12;stroke-linecap:round;stroke-linejoin:round;stroke-miterlimit:10;}
	.st75{fill:none;stroke:#FFFFFF;stroke-width:1.0068;stroke-linecap:round;stroke-linejoin:round;stroke-miterlimit:10;}
	.st76{fill:none;stroke:#FFFFFF;stroke-width:4.7102;stroke-linecap:round;stroke-linejoin:round;stroke-miterlimit:10;}
	.st77{fill:none;stroke:#FFFFFF;stroke-width:4.5799;stroke-linecap:round;stroke-linejoin:round;stroke-miterlimit:10;}
	.st78{fill:none;stroke:#FFFFFF;stroke-width:1.6767;stroke-linecap:round;stroke-linejoin:round;stroke-miterlimit:10;}
	.st79{fill:none;stroke:#FFFFFF;stroke-width:5.8436;stroke-linecap:round;stroke-linejoin:round;stroke-miterlimit:10;}
	.st80{fill:none;stroke:#FFFFFF;stroke-width:4.0759;stroke-linecap:round;stroke-linejoin:round;stroke-miterlimit:10;}
	.st81{fill:none;stroke:#FFFFFF;stroke-width:3.0831;stroke-linecap:round;stroke-linejoin:round;stroke-miterlimit:10;}
	.st82{fill:none;stroke:#FFFFFF;stroke-width:4.6797;stroke-linecap:round;stroke-linejoin:round;stroke-miterlimit:10;}
	.st83{fill:none;stroke:#FFFFFF;stroke-width:3.0107;stroke-linecap:round;stroke-linejoin:round;stroke-miterlimit:10;}
	.st84{fill:none;stroke:#FFFFFF;stroke-width:6.8386;stroke-linecap:round;stroke-linejoin:round;stroke-miterlimit:10;}
	.st85{fill:none;stroke:#FFFFFF;stroke-width:4.4223;stroke-linecap:round;stroke-linejoin:round;stroke-miterlimit:10;}
	.st86{fill:none;stroke:#FFFFFF;stroke-width:7.4603;stroke-linecap:round;stroke-linejoin:round;stroke-miterlimit:10;}
	.st87{fill:none;stroke:#FFFFFF;stroke-width:4.4234;stroke-linecap:round;stroke-linejoin:round;stroke-miterlimit:10;}
	.st88{fill:none;stroke:#FFFFFF;stroke-width:6.9766;stroke-linecap:round;stroke-linejoin:round;stroke-miterlimit:10;}
	.st89{fill:none;stroke:#FFFFFF;stroke-width:7.7549;stroke-linecap:round;stroke-linejoin:round;stroke-miterlimit:10;}
	.st90{fill:none;stroke:#FFFFFF;stroke-width:3.9216;stroke-linecap:round;stroke-linejoin:round;stroke-miterlimit:10;}
	.st91{fill:none;stroke:#FFFFFF;stroke-width:7.152;stroke-linecap:round;stroke-linejoin:round;stroke-miterlimit:10;}
	.st92{fill:none;stroke:#FFFFFF;stroke-width:10.4724;stroke-linecap:round;stroke-linejoin:round;stroke-miterlimit:10;}
	.st93{fill:none;stroke:#FFFFFF;stroke-width:3.576;stroke-linecap:round;stroke-linejoin:round;stroke-miterlimit:10;}
	.st94{fill:none;stroke:#FFFFFF;stroke-width:2.933;stroke-linecap:round;stroke-linejoin:round;stroke-miterlimit:10;}
	.st95{fill:none;stroke:#FFFFFF;stroke-width:4.9756;stroke-linecap:round;stroke-linejoin:round;stroke-miterlimit:10;}
	.st96{fill:none;stroke:#FFFFFF;stroke-width:1.4569;stroke-linecap:round;stroke-linejoin:round;stroke-miterlimit:10;}
	.st97{fill:none;stroke:#FFFFFF;stroke-width:5.2362;stroke-linecap:round;stroke-linejoin:round;stroke-miterlimit:10;}
	.st98{fill:none;stroke:#FFFFFF;stroke-width:5.8661;stroke-linecap:round;stroke-linejoin:round;stroke-miterlimit:10;}
	.st99{fill:none;stroke:#FFFFFF;stroke-width:2.1991;stroke-linecap:round;stroke-linejoin:round;stroke-miterlimit:10;}
	.st100{fill:none;stroke:#FFFFFF;stroke-width:3.975;stroke-linecap:round;stroke-linejoin:round;stroke-miterlimit:10;}
	.st101{fill:none;stroke:#FFFFFF;stroke-width:5.5308;stroke-linecap:round;stroke-linejoin:round;stroke-miterlimit:10;}
	.st102{fill:none;stroke:#FFFFFF;stroke-width:1.9744;stroke-linecap:round;stroke-linejoin:round;stroke-miterlimit:10;}
	.st103{fill:none;stroke:#FFFFFF;stroke-width:1.5273;stroke-linecap:round;stroke-linejoin:round;stroke-miterlimit:10;}
	.st104{fill:none;stroke:#FFFFFF;stroke-width:2.0867;stroke-linecap:round;stroke-linejoin:round;stroke-miterlimit:10;}
	.st105{fill:none;stroke:#FFFFFF;stroke-width:5.2627;stroke-linecap:round;stroke-linejoin:round;stroke-miterlimit:10;}
	.st106{fill:none;stroke:#FFFFFF;stroke-width:3.2657;stroke-linecap:round;stroke-linejoin:round;stroke-miterlimit:10;}
</style>
<g id="Stars">
	<g>
		<line class="st0" x1="1855.6" y1="121.4" x2="1810.5" y2="170.5"/>
		<line class="st0" x1="1808.4" y1="123.4" x2="1857.6" y2="168.5"/>
	</g>
	<g>
		<line class="st1" x1="743.6" y1="139.1" x2="706.4" y2="231.3"/>
		<line class="st1" x1="678.9" y1="166.6" x2="771.1" y2="203.8"/>
	</g>
	<g>
		<line class="st2" x1="436.3" y1="190.7" x2="475.3" y2="282.3"/>
		<line class="st2" x1="410" y1="256" x2="501.5" y2="217"/>
	</g>
	<g>
		<line class="st3" x1="1897.8" y1="193.6" x2="1855" y2="218.9"/>
		<line class="st3" x1="1863.8" y1="184.9" x2="1889.1" y2="227.7"/>
	</g>
	<g>
		<line class="st4" x1="1742.3" y1="142.1" x2="1733.2" y2="226"/>
		<line class="st4" x1="1695.8" y1="179.5" x2="1779.7" y2="188.6"/>
	</g>
	<g>
		<line class="st5" x1="1826.9" y1="197.8" x2="1813.8" y2="232.6"/>
		<line class="st5" x1="1802.9" y1="208.6" x2="1837.8" y2="221.8"/>
	</g>
	<g>
		<line class="st0" x1="1039.6" y1="114.3" x2="1089.6" y2="158.6"/>
		<line class="st0" x1="1042.5" y1="161.4" x2="1086.8" y2="111.5"/>
	</g>
	<g>
		<line class="st6" x1="70.5" y1="100.9" x2="109.7" y2="115.9"/>
		<line class="st6" x1="82.6" y1="128" x2="97.6" y2="88.8"/>
	</g>
	<g>
		<line class="st2" x1="97.3" y1="222.1" x2="196.7" y2="226.1"/>
		<line class="st2" x1="145" y1="273.8" x2="149" y2="174.4"/>
	</g>
	<g>
		<line class="st3" x1="341.7" y1="182.1" x2="346.2" y2="231.6"/>
		<line class="st3" x1="319.2" y1="209.1" x2="368.7" y2="204.6"/>
	</g>
	<g>
		<line class="st4" x1="1345.2" y1="152" x2="1417" y2="196.2"/>
		<line class="st4" x1="1359" y1="210" x2="1403.2" y2="138.2"/>
	</g>
	<g>
		<line class="st5" x1="95.8" y1="158.8" x2="121.7" y2="185.6"/>
		<line class="st5" x1="95.4" y1="185.2" x2="122.2" y2="159.3"/>
	</g>
	
		<ellipse transform="matrix(0.4283 -0.9036 0.9036 0.4283 621.6261 1271.3036)" class="st7" cx="1315.6" cy="144.4" rx="13.3" ry="13.3"/>
	
		<ellipse transform="matrix(0.695 -0.719 0.719 0.695 170.7163 809.6757)" class="st8" cx="1039.7" cy="203.6" rx="23.2" ry="23.2"/>
	<ellipse transform="matrix(0.695 -0.719 0.719 0.695 221.1489 948.8792)" class="st9" cx="1229" cy="213.8" rx="23.2" ry="23.2"/>
	
		<ellipse transform="matrix(0.4283 -0.9036 0.9036 0.4283 683.2053 1384.8328)" class="st7" cx="1436.1" cy="152.5" rx="13.3" ry="13.3"/>
	<g>
		<line class="st10" x1="1508.8" y1="198" x2="1454.1" y2="199.9"/>
		<line class="st10" x1="1480.5" y1="171.6" x2="1482.3" y2="226.3"/>
	</g>
	<g>
		<line class="st11" x1="85.7" y1="150.1" x2="10.3" y2="181.4"/>
		<line class="st11" x1="32.4" y1="128" x2="63.6" y2="203.4"/>
	</g>
	<g>
		<line class="st12" x1="283.8" y1="155.5" x2="244.4" y2="145"/>
		<line class="st12" x1="269.4" y1="130.5" x2="258.8" y2="170"/>
	</g>
	<g>
		<line class="st13" x1="275.8" y1="186.7" x2="221.4" y2="229.6"/>
		<line class="st13" x1="227.2" y1="181" x2="270" y2="235.3"/>
	</g>
	<g>
		<line class="st14" x1="1292.2" y1="182.1" x2="1264.2" y2="194.5"/>
		<line class="st14" x1="1272" y1="174.3" x2="1284.4" y2="202.3"/>
	</g>
	
		<ellipse transform="matrix(0.7137 -0.7005 0.7005 0.7137 247.0599 981.0633)" class="st15" cx="1323.6" cy="188.3" rx="15.3" ry="15.3"/>
	<ellipse transform="matrix(9.348942e-03 -1 1 9.348942e-03 35.8486 214.8778)" class="st16" cx="126.4" cy="89.3" rx="8" ry="8"/>
	
		<ellipse transform="matrix(9.348942e-03 -1 1 9.348942e-03 1349.1123 1650.7935)" class="st17" cx="1507.7" cy="144.5" rx="19" ry="19"/>
	
		<ellipse transform="matrix(0.7137 -0.7005 0.7005 0.7137 -65.3527 184.6147)" class="st18" cx="193.1" cy="172.2" rx="10.9" ry="10.9"/>
	
		<ellipse transform="matrix(0.695 -0.719 0.719 0.695 257.9811 1081.9413)" class="st8" cx="1404.3" cy="236.9" rx="23.2" ry="23.2"/>
	<g>
		<line class="st19" x1="530.7" y1="23.5" x2="569.8" y2="36.5"/>
		<line class="st19" x1="543.7" y1="49.5" x2="556.8" y2="10.4"/>
	</g>
	<ellipse transform="matrix(0.7137 -0.7005 0.7005 0.7137 123.5799 376.2867)" class="st20" cx="522.1" cy="37" rx="7.5" ry="7.5"/>
	<ellipse transform="matrix(0.695 -0.719 0.719 0.695 127.6525 422.3339)" class="st21" cx="561.6" cy="60.7" rx="11.3" ry="11.3"/>
</g>
<g id="Circles">
	<circle class="st7" cx="1787.5" cy="141.8" r="13.3"/>
	
		<ellipse transform="matrix(0.7071 -0.7071 0.7071 0.7071 439.5953 1383.6409)" class="st8" cx="1890" cy="161.2" rx="23.2" ry="23.2"/>
	
		<ellipse transform="matrix(0.7071 -0.7071 0.7071 0.7071 45.6294 526.9839)" class="st9" cx="658.9" cy="208.4" rx="23.2" ry="23.2"/>
	<circle class="st7" cx="1783" cy="225.2" r="13.3"/>
	<g>
		<line class="st10" x1="1629.7" y1="239.1" x2="1604.6" y2="190.4"/>
		<line class="st10" x1="1641.5" y1="202.2" x2="1592.8" y2="227.3"/>
	</g>
	<g>
		<line class="st11" x1="619.4" y1="227.9" x2="558.9" y2="173.2"/>
		<line class="st11" x1="616.5" y1="170.3" x2="561.8" y2="230.8"/>
	</g>
	<g>
		<line class="st12" x1="1657.4" y1="166" x2="1650" y2="125.9"/>
		<line class="st12" x1="1673.8" y1="142.3" x2="1633.6" y2="149.6"/>
	</g>
	<g>
		<line class="st13" x1="1625.7" y1="172.1" x2="1563.8" y2="141.4"/>
		<line class="st13" x1="1610.1" y1="125.8" x2="1579.4" y2="187.7"/>
	</g>
	<g>
		<line class="st14" x1="548.1" y1="210.5" x2="525" y2="190.5"/>
		<line class="st14" x1="546.5" y1="189" x2="526.5" y2="212.1"/>
	</g>
	
		<ellipse transform="matrix(0.3449 -0.9386 0.9386 0.3449 984.1844 1686.4833)" class="st15" cx="1700.3" cy="138.2" rx="15.3" ry="15.3"/>
	
		<ellipse transform="matrix(0.9076 -0.4198 0.4198 0.9076 -13.5751 237.8035)" class="st22" cx="533.5" cy="149.7" rx="19" ry="19"/>
	
		<ellipse transform="matrix(0.9076 -0.4198 0.4198 0.9076 64.6624 724.1885)" class="st17" cx="1677.7" cy="215.2" rx="19" ry="19"/>
	
		<ellipse transform="matrix(0.3449 -0.9386 0.9386 0.3449 918.1827 1490.6644)" class="st18" cx="1527" cy="87.5" rx="10.9" ry="10.9"/>
	<g>
		<line class="st23" x1="213.4" y1="78.3" x2="244.5" y2="120"/>
		<line class="st23" x1="208.1" y1="114.8" x2="249.8" y2="83.6"/>
	</g>
	<g>
		<line class="st24" x1="1126.8" y1="174.5" x2="1214.3" y2="157.1"/>
		<line class="st24" x1="1179.2" y1="209.5" x2="1161.9" y2="122"/>
	</g>
	<g>
		<line class="st25" x1="1086" y1="193.4" x2="1132.8" y2="242.8"/>
		<line class="st25" x1="1084.7" y1="241.5" x2="1134.1" y2="194.7"/>
	</g>
	<g>
		<line class="st26" x1="369.2" y1="157.4" x2="418.8" y2="181.8"/>
		<line class="st26" x1="381.8" y1="194.4" x2="406.1" y2="144.8"/>
	</g>
	<g>
		<line class="st27" x1="919.7" y1="220.1" x2="971.8" y2="165.1"/>
		<line class="st27" x1="973.2" y1="218.7" x2="918.3" y2="166.6"/>
	</g>
	
		<ellipse transform="matrix(0.9115 -0.4113 0.4113 0.9115 4.5769 336.5706)" class="st7" cx="784.4" cy="157.6" rx="13.3" ry="13.3"/>
	<g>
		<line class="st28" x1="880.8" y1="128.9" x2="866.4" y2="170.7"/>
		<line class="st28" x1="852.7" y1="142.6" x2="894.5" y2="157"/>
	</g>
	<g>
		<line class="st29" x1="366" y1="95" x2="339.7" y2="120.1"/>
		<line class="st29" x1="340.3" y1="94.4" x2="365.4" y2="120.6"/>
	</g>
	<g>
		<line class="st30" x1="457.4" y1="111.6" x2="466.7" y2="188"/>
		<line class="st30" x1="423.9" y1="154.4" x2="500.3" y2="145.2"/>
	</g>
	
		<ellipse transform="matrix(0.3651 -0.931 0.931 0.3651 345.9199 934.7343)" class="st31" cx="858.3" cy="213.8" rx="15.3" ry="15.3"/>
	
		<ellipse transform="matrix(0.5197 -0.8544 0.8544 0.5197 26.2871 357.0475)" class="st32" cx="330.7" cy="155.1" rx="14.7" ry="14.7"/>
	
		<ellipse transform="matrix(0.9716 -0.2367 0.2367 0.9716 -23.3909 41.0992)" class="st33" cx="159.5" cy="118" rx="13.3" ry="13.3"/>
	
		<ellipse transform="matrix(0.6475 -0.7621 0.7621 0.6475 142.7478 522.4863)" class="st34" cx="636.1" cy="106.9" rx="10.6" ry="10.6"/>
	<g>
		<line class="st35" x1="598.7" y1="100.6" x2="559.5" y2="97.8"/>
		<line class="st35" x1="580.5" y1="79.6" x2="577.7" y2="118.8"/>
	</g>
	<g>
		<line class="st36" x1="537.2" y1="75.8" x2="481" y2="92.5"/>
		<line class="st36" x1="500.7" y1="56.1" x2="517.4" y2="112.3"/>
	</g>
	<g>
		<line class="st37" x1="818.9" y1="214.7" x2="784.7" y2="201.6"/>
		<line class="st37" x1="808.4" y1="191.1" x2="795.3" y2="225.3"/>
	</g>
	<g>
		<line class="st38" x1="80.9" y1="71" x2="63.6" y2="87"/>
		<line class="st38" x1="64.3" y1="70.4" x2="80.3" y2="87.7"/>
	</g>
	<g>
		<line class="st39" x1="499.9" y1="113.1" x2="479" y2="119.8"/>
		<line class="st39" x1="486.1" y1="106" x2="492.8" y2="126.9"/>
	</g>
	
		<ellipse transform="matrix(0.7825 -0.6227 0.6227 0.7825 132.3787 651.7188)" class="st40" cx="999" cy="136.4" rx="13.7" ry="13.7"/>
	<ellipse transform="matrix(0.9744 -0.2248 0.2248 0.9744 -19.4088 9.7954)" class="st41" cx="33.3" cy="90.1" rx="8.9" ry="8.9"/>
	
		<ellipse transform="matrix(0.2677 -0.9635 0.9635 0.2677 921.1326 1648.1047)" class="st31" cx="1544.8" cy="218.1" rx="15.3" ry="15.3"/>
	
		<ellipse transform="matrix(0.5301 -0.848 0.848 0.5301 246.0219 775.6135)" class="st42" cx="822.8" cy="165.8" rx="9.8" ry="9.8"/>
	<g>
		<line class="st43" x1="1853.8" y1="54.4" x2="1814.7" y2="30.1"/>
		<line class="st43" x1="1846.4" y1="22.7" x2="1822.1" y2="61.7"/>
	</g>
	
		<ellipse transform="matrix(0.5639 -0.8259 0.8259 0.5639 798.8185 1561.8328)" class="st44" cx="1878.2" cy="24.6" rx="16" ry="16"/>
	
		<ellipse transform="matrix(0.5639 -0.8259 0.8259 0.5639 692.6647 1463.4069)" class="st45" cx="1731.9" cy="75.9" rx="16" ry="16"/>
	<g>
		<line class="st46" x1="1798" y1="88.3" x2="1757.7" y2="103.7"/>
		<line class="st46" x1="1770.2" y1="75.9" x2="1785.6" y2="116.1"/>
	</g>
	<g>
		<line class="st47" x1="1798.1" y1="38.7" x2="1760.5" y2="10.5"/>
		<line class="st47" x1="1793.4" y1="5.8" x2="1765.2" y2="43.4"/>
	</g>
	<g>
		<line class="st48" x1="1889.4" y1="59.2" x2="1876.4" y2="109.8"/>
		<line class="st48" x1="1857.6" y1="77.9" x2="1908.2" y2="91"/>
	</g>
	
		<ellipse transform="matrix(0.6663 -0.7457 0.7457 0.6663 543.7605 1408.8137)" class="st49" cx="1845.9" cy="96.9" rx="9.5" ry="9.5"/>
	<g>
		<line class="st50" x1="1431.9" y1="130.8" x2="1444.6" y2="84.3"/>
		<line class="st50" x1="1461.5" y1="113.9" x2="1415.1" y2="101.2"/>
	</g>
	<g>
		<line class="st51" x1="1542.3" y1="59.2" x2="1518.5" y2="17.4"/>
		<line class="st51" x1="1551.3" y1="26.3" x2="1509.5" y2="50.2"/>
	</g>
	<g>
		<line class="st51" x1="1701.7" y1="85.7" x2="1653.7" y2="89.3"/>
		<line class="st51" x1="1675.8" y1="63.5" x2="1679.5" y2="111.5"/>
	</g>
	<g>
		<line class="st52" x1="1602.1" y1="41.9" x2="1597.2" y2="18.3"/>
		<line class="st52" x1="1611.4" y1="27.6" x2="1587.9" y2="32.6"/>
	</g>
	<g>
		<line class="st53" x1="1631.5" y1="51.4" x2="1651" y2="54.2"/>
		<line class="st53" x1="1639.8" y1="62.6" x2="1642.6" y2="43"/>
	</g>
	<g>
		<line class="st54" x1="1633.6" y1="35.9" x2="1657.3" y2="12.3"/>
		<line class="st54" x1="1657.2" y1="36" x2="1633.6" y2="12.3"/>
	</g>
	
		<ellipse transform="matrix(0.6275 -0.7786 0.7786 0.6275 593.8129 1317.738)" class="st55" cx="1674.1" cy="38.3" rx="5.3" ry="5.3"/>
	
		<ellipse transform="matrix(0.6202 -0.7845 0.7845 0.6202 519.6792 1163.8557)" class="st56" cx="1461.7" cy="45.3" rx="11.2" ry="11.2"/>
	<g>
		<line class="st57" x1="1470.3" y1="77.8" x2="1502.4" y2="100.7"/>
		<line class="st57" x1="1474.9" y1="105.3" x2="1497.8" y2="73.2"/>
	</g>
	<g>
		<line class="st58" x1="1484.2" y1="13.2" x2="1496.5" y2="21.5"/>
		<line class="st58" x1="1486.2" y1="23.5" x2="1494.5" y2="11.2"/>
	</g>
	<g>
		<line class="st59" x1="1590.3" y1="55.3" x2="1565.1" y2="46.4"/>
		<line class="st59" x1="1582.2" y1="38.2" x2="1573.3" y2="63.4"/>
	</g>
	<g>
		<line class="st60" x1="1580.3" y1="123.1" x2="1571.6" y2="86.9"/>
		<line class="st60" x1="1594" y1="100.6" x2="1557.9" y2="109.4"/>
	</g>
	
		<ellipse transform="matrix(0.4169 -0.909 0.909 0.4169 880.0545 1497.4431)" class="st61" cx="1607.1" cy="62.8" rx="7.1" ry="7.1"/>
	<g>
		<line class="st62" x1="686.4" y1="104.2" x2="691.5" y2="137.3"/>
		<line class="st62" x1="672.4" y1="123.3" x2="705.4" y2="118.2"/>
	</g>
	<g>
		<line class="st63" x1="1259.5" y1="121.1" x2="1276.3" y2="136"/>
		<line class="st63" x1="1260.4" y1="137" x2="1275.3" y2="120.2"/>
	</g>
	<ellipse transform="matrix(0.695 -0.719 0.719 0.695 270.531 942.8433)" class="st64" cx="1246.6" cy="152.5" rx="7.8" ry="7.8"/>
	<ellipse transform="matrix(0.695 -0.719 0.719 0.695 349.3074 1025.4562)" class="st65" cx="1383.4" cy="101" rx="7.8" ry="7.8"/>
	<g>
		<line class="st66" x1="1420.9" y1="58.6" x2="1411.5" y2="62.8"/>
		<line class="st66" x1="1414.1" y1="56" x2="1418.3" y2="65.4"/>
	</g>
	<g>
		<line class="st67" x1="1319.2" y1="95.1" x2="1348.7" y2="89.3"/>
		<line class="st67" x1="1336.9" y1="106.9" x2="1331" y2="77.5"/>
	</g>
	<g>
		<line class="st68" x1="1305.5" y1="101.5" x2="1321.3" y2="118.1"/>
		<line class="st68" x1="1305.1" y1="117.7" x2="1321.7" y2="101.9"/>
	</g>
	<g>
		<line class="st69" x1="723" y1="110.3" x2="740.5" y2="91.8"/>
		<line class="st69" x1="741" y1="109.8" x2="722.5" y2="92.3"/>
	</g>
	
		<ellipse transform="matrix(0.5739 -0.8189 0.8189 0.5739 200.9712 526.4349)" class="st70" cx="606.4" cy="70.1" rx="4.5" ry="4.5"/>
	<g>
		<line class="st71" x1="645.6" y1="67" x2="640.8" y2="81"/>
		<line class="st71" x1="636.2" y1="71.6" x2="650.2" y2="76.4"/>
	</g>
	
		<ellipse transform="matrix(0.3651 -0.931 0.931 0.3651 679.4111 1212.8627)" class="st72" cx="1228.9" cy="108.3" rx="5.2" ry="5.2"/>
	<g>
		<line class="st73" x1="1215.8" y1="108.7" x2="1204.3" y2="104.3"/>
		<line class="st73" x1="1212.2" y1="100.7" x2="1207.8" y2="112.2"/>
	</g>
	
		<ellipse transform="matrix(0.7825 -0.6227 0.6227 0.7825 108.3346 499.7527)" class="st74" cx="769.5" cy="94.8" rx="4.6" ry="4.6"/>
	<ellipse transform="matrix(0.5301 -0.848 0.848 0.5301 226.9127 568.2408)" class="st75" cx="626.1" cy="79.4" rx="3.3" ry="3.3"/>
	<g>
		<line class="st76" x1="950" y1="148.4" x2="925.8" y2="133.1"/>
		<line class="st76" x1="945.5" y1="128.7" x2="930.3" y2="152.8"/>
	</g>
	<g>
		<line class="st77" x1="331.1" y1="61" x2="358.7" y2="58.1"/>
		<line class="st77" x1="346.3" y1="73.4" x2="343.4" y2="45.7"/>
	</g>
	
		<ellipse transform="matrix(0.9375 -0.3481 0.3481 0.9375 10.0897 158.3929)" class="st78" cx="445.9" cy="51.1" rx="5.5" ry="5.5"/>
	<g>
		<line class="st79" x1="429.4" y1="106.8" x2="399.4" y2="87.8"/>
		<line class="st79" x1="423.9" y1="82.3" x2="404.9" y2="112.3"/>
	</g>
	<g>
		<line class="st80" x1="292" y1="105.7" x2="302.6" y2="83.3"/>
		<line class="st80" x1="308.5" y1="99.8" x2="286.2" y2="89.2"/>
	</g>
	<ellipse transform="matrix(0.1806 -0.9836 0.9836 0.1806 187.7739 343.1258)" class="st81" cx="299.8" cy="58.9" rx="10" ry="10"/>
	<ellipse transform="matrix(0.8232 -0.5678 0.5678 0.8232 32.8537 226.9995)" class="st82" cx="380.9" cy="60.8" rx="9" ry="9"/>
	<ellipse transform="matrix(0.5197 -0.8544 0.8544 0.5197 -15.5989 46.2017)" class="st32" cx="33.3" cy="37" rx="14.7" ry="14.7"/>
	
		<ellipse transform="matrix(0.4429 -0.8966 0.8966 0.4429 456.518 845.8362)" class="st83" cx="908.9" cy="55.6" rx="9.8" ry="9.8"/>
	<g>
		<line class="st84" x1="1254.9" y1="50.2" x2="1287.6" y2="75.8"/>
		<line class="st84" x1="1258.4" y1="79.4" x2="1284" y2="46.7"/>
	</g>
	
		<ellipse transform="matrix(0.6486 -0.7611 0.7611 0.6486 375.5397 962.5345)" class="st85" cx="1230.2" cy="74.5" rx="14.4" ry="14.4"/>
	
		<ellipse transform="matrix(0.6486 -0.7611 0.7611 0.6486 319.9862 830.288)" class="st86" cx="1059.2" cy="68.6" rx="14.4" ry="14.4"/>
	<g>
		<line class="st87" x1="674.3" y1="81" x2="711.9" y2="71.1"/>
		<line class="st87" x1="698.1" y1="94.8" x2="688.2" y2="57.3"/>
	</g>
	<g>
		<line class="st88" x1="997.9" y1="61.4" x2="1028.9" y2="90.3"/>
		<line class="st88" x1="999" y1="91.3" x2="1027.8" y2="60.4"/>
	</g>
	<g>
		<line class="st89" x1="1316.4" y1="66.9" x2="1332.9" y2="22.9"/>
		<line class="st89" x1="1346.7" y1="53.2" x2="1302.6" y2="36.6"/>
	</g>
	
		<ellipse transform="matrix(0.7419 -0.6705 0.6705 0.7419 320.3765 939.1395)" class="st90" cx="1380.1" cy="53.4" rx="8.5" ry="8.5"/>
	<g>
		<line class="st91" x1="1166.1" y1="49.4" x2="1150.3" y2="89.8"/>
		<line class="st91" x1="1138" y1="61.7" x2="1178.4" y2="77.5"/>
	</g>
	<g>
		<line class="st92" x1="892.5" y1="79.5" x2="909.9" y2="119.2"/>
		<line class="st92" x1="881.3" y1="108.1" x2="921.1" y2="90.7"/>
	</g>
	<g>
		<line class="st92" x1="1087.7" y1="79.8" x2="1131.1" y2="81.1"/>
		<line class="st92" x1="1108.7" y1="102.1" x2="1110" y2="58.7"/>
	</g>
	<g>
		<line class="st93" x1="826.7" y1="96.7" x2="828.8" y2="118.3"/>
		<line class="st93" x1="817" y1="108.6" x2="838.5" y2="106.5"/>
	</g>
	<g>
		<line class="st94" x1="803.6" y1="87.2" x2="786.3" y2="82.7"/>
		<line class="st94" x1="797.2" y1="76.3" x2="792.7" y2="93.6"/>
	</g>
	<g>
		<line class="st95" x1="800.2" y1="100.8" x2="776.7" y2="119.7"/>
		<line class="st95" x1="779" y1="98.5" x2="797.9" y2="122"/>
	</g>
	
		<ellipse transform="matrix(0.7068 -0.7074 0.7074 0.7068 236.4819 820.3446)" class="st96" cx="1107.9" cy="124.9" rx="4.7" ry="4.7"/>
	
		<ellipse transform="matrix(0.7002 -0.714 0.714 0.7002 242.2402 713.2205)" class="st97" cx="970.3" cy="68.2" rx="10.1" ry="10.1"/>
	<g>
		<line class="st98" x1="954" y1="51.6" x2="927.3" y2="28"/>
		<line class="st98" x1="952.5" y1="26.4" x2="928.9" y2="53.1"/>
	</g>
	<g>
		<line class="st99" x1="947.1" y1="94.8" x2="936.9" y2="86.2"/>
		<line class="st99" x1="946.3" y1="85.4" x2="937.7" y2="95.6"/>
	</g>
	<g>
		<line class="st100" x1="849.1" y1="78.4" x2="870.9" y2="88.8"/>
		<line class="st100" x1="854.8" y1="94.4" x2="865.2" y2="72.7"/>
	</g>
	<g>
		<line class="st101" x1="871.4" y1="29.1" x2="875.8" y2="62.4"/>
		<line class="st101" x1="857" y1="47.9" x2="890.2" y2="43.5"/>
	</g>
	
		<ellipse transform="matrix(0.5113 -0.8594 0.8594 0.5113 337.4572 754.1838)" class="st102" cx="831.9" cy="80.4" rx="6.4" ry="6.4"/>
	<g>
		<line class="st103" x1="1186.1" y1="54.2" x2="1194.9" y2="51.4"/>
		<line class="st103" x1="1191.9" y1="57.2" x2="1189.1" y2="48.4"/>
	</g>
	<g>
		<line class="st104" x1="1911.4" y1="32.2" x2="1904.1" y2="49"/>
		<line class="st104" x1="1899.4" y1="37" x2="1916.2" y2="44.2"/>
	</g>
</g>
<ellipse transform="matrix(0.5197 -0.8544 0.8544 0.5197 -105.172 59.1277)" class="st105" cx="0" cy="123.1" rx="17.1" ry="17.1"/>
<ellipse transform="matrix(0.5197 -0.8544 0.8544 0.5197 817.0476 1699.504)" class="st105" cx="1920" cy="123.1" rx="17.1" ry="17.1"/>
<g>
	<line class="st106" x1="21.4" y1="72.3" x2="3.6" y2="63.5"/>
	<line class="st106" x1="16.9" y1="59" x2="8.1" y2="76.8"/>
</g>
</svg>
